<?xml version="1.0" encoding="utf-8"?>
<!-- Generator: Adobe Illustrator 25.0.1, SVG Export Plug-In . SVG Version: 6.00 Build 0)  -->
<svg version="1.1" id="Layer_1" xmlns="http://www.w3.org/2000/svg" xmlns:xlink="http://www.w3.org/1999/xlink" x="0px" y="0px"
	 viewBox="0 0 400 400" style="enable-background:new 0 0 400 400;" xml:space="preserve">
<style type="text/css">
	.st0{fill:none;stroke:#231F20;stroke-width:3.8641;stroke-linecap:round;stroke-miterlimit:10;}
	.st1{fill:none;stroke:#DA1C5C;stroke-width:20;stroke-linecap:round;stroke-miterlimit:10;}
	.st2{fill:none;stroke:#231F20;stroke-width:20.3137;stroke-miterlimit:10;}
</style>
<polygon class="st0" points="202.1,195.7 203.5,190.8 203.5,195.9 206.3,191.8 204.8,196.6 208.6,193.6 205.8,197.7 210.3,196.1 
	206.5,199.1 211.1,199.1 206.7,200.6 211.1,202.1 206.5,202.1 210.3,205.1 205.8,203.5 208.6,207.6 204.8,204.6 206.3,209.4 
	203.5,205.3 203.5,210.4 202.1,205.5 200.7,210.4 200.7,205.3 198,209.4 199.4,204.6 195.6,207.6 198.4,203.5 194,205.1 
	197.8,202.1 193.1,202.1 197.5,200.6 193.1,199.1 197.8,199.1 194,196.1 198.4,197.7 195.6,193.6 199.4,196.6 198,191.8 
	200.7,195.9 200.7,190.8 "/>
<path class="st1" d="M222.1,88.8c6.7-4.7,35.1-23.7,62.3-14.3c5.2,1.8,17.6,14.3,42.4,39.3c12.9,13,18.2,18.8,16.9,25
	c-2,9.1-15.8,8.7-25.5,19.4c-5.2,5.7-9.5,14.9-9.2,30.3"/>
<path class="st1" d="M308.9,188.6c2.3,1.2,4.8,2.6,7.2,4.4c10.6,8.1,19.4,22.4,17.9,37.8c-0.3,3-1.4,13.8-9.7,20.9
	c-0.9,0.8-4,3.4-11.2,5.6c-2.9,0.9-7.1,2-12.5,2.4"/>
<path class="st1" d="M188.2,316.3c4.4,6.6,11.3,14.1,21.7,18.2c26.8,10.4,52.7-12.2,55.7-14.8c14.2-12.7,5.6-17.2,27.1-48
	c2.7-3.9,5.7-7.9,7.9-11.9c2.8-5.1,4.5-10.3,2.8-15.2c-1.5-4.3-4.8-6.1-6.7-12.2c-0.2-0.5-0.3-1.1-0.5-1.6
	c-1.4-5.8,0.2-7.4-0.5-13.8c-0.9-8-3.8-8.3-7.7-19.4c-3.7-10.6-1.7-12.2-5.6-22.5c-3.2-8.2-4.4-7-7.1-14.3
	c-3.9-10.4-2.1-14.6-5.1-27.6c-2.3-10-3.4-14.9-6.1-18.4c-10.6-13.3-30.2-4.9-39.8-18.4c-3.4-4.7-1.2-6-5.6-13.3
	c-1.3-2.1-8.3-13.1-19.4-17.4c-15.2-5.8-31.1,3.5-46,12.3c-3.1,1.8-11.1,8.3-27.1,21.4c-13.3,10.9-17.6,14.9-19.9,22
	c-2.1,6.3-0.2,8.1-2,18.9c-0.1,0.8-0.3,1.5-0.4,2.2c-1.9,9.7-4.8,14.9-6.2,19.7c-2.7,8.8-2.5,22.6,11.2,44.4"/>
<path class="st1" d="M165.4,211.4c-10.6-12.6-25.2-19.3-38.3-16.3c-21.2,4.8-26.8,32.3-28.6,40.9c-1.9,9.2-1.8,18.5-0.6,27
	c3,20.2,12.8,36,19.5,35.9c3.9-0.1,6.1-5.6,10.2-4.6c4.4,1,3.6,7.9,8.7,14.8c6.5,8.9,20,14.2,30.1,11.8c5-1.2,5.6-3.5,12.2-4.6
	c4.7-0.8,7.2-0.2,9.5,0.2c1.7,0.3,3.2,0.4,5.3-0.2c8.9-2.6,7.4-12.3,16.3-15.8c7.2-2.8,10.5,2.6,18.4-1c1.3-0.6,4.5-3.3,10.7-8.7
	c2-1.7,1.8-1.5,9.2-8.2c7.3-6.5,7.5-6.7,8.2-7.7c1.4-2.2,1.7-3.7,3.6-14.3c1.3-7.6,2-11.3,2-11.7c0.7-10.3-2.3-14.1,0.5-17.4
	c2.3-2.7,6.5-2.6,8.7-2.6c7.1,0.1,9.5,4.6,15.3,5.6c2.4,0.4,5.8,0.3,10.2-1.9"/>
<path class="st1" d="M97.9,262.9c-4.9-4.6-10.1-10.5-14.2-18.3c-0.8-1.6-17.2-33.1-4.6-51.6c3-4.4,5.7-5.3,7.7-10.7
	c3.1-8.8-1.6-13.3,1-24c0.9-3.7,2.4-9.9,7.7-13.3c2.6-1.7,5.5-2.3,8.3-2.4"/>
<ellipse class="st2" cx="202.1" cy="200.6" rx="33.4" ry="35.5"/>
</svg>
